PathFileType	4	(X/Y/Z)	C:/Users/opensim2020/Desktop/walking_exp_matlab/subject03_walking05_straight_03.trc																																																																																																																																					
DataRate	CameraRate	NumFrames	NumMarkers	Units	OrigDataRate	OrigDataStartFrame	OrigNumFrames																																																																																																																																	
100	100	4	45	mm	100	2367	293																																																																																																																																	
Frame#	Time	LFHD			RFHD			LBHD			RBHD			C7			T10			CLAV			STRN			RBAK			LSHO			LUPA			LELB			LFRM			LWRA			LWRB			LFIN			RSHO			RUPA			RELB			RFRM			RWRA			RWRB			RFIN			LASI			RASI			LPSI			RPSI			LTHI			LKNE			LTIB			LANK			LHEE			LTOE			RTHI			RKNE			RTIB			RANK			RHEE			RTOE			*39			*40			*41			*42			*43			*44		
		X1	Y1	Z1	X2	Y2	Z2	X3	Y3	Z3	X4	Y4	Z4	X5	Y5	Z5	X6	Y6	Z6	X7	Y7	Z7	X8	Y8	Z8	X9	Y9	Z9	X10	Y10	Z10	X11	Y11	Z11	X12	Y12	Z12	X13	Y13	Z13	X14	Y14	Z14	X15	Y15	Z15	X16	Y16	Z16	X17	Y17	Z17	X18	Y18	Z18	X19	Y19	Z19	X20	Y20	Z20	X21	Y21	Z21	X22	Y22	Z22	X23	Y23	Z23	X24	Y24	Z24	X25	Y25	Z25	X26	Y26	Z26	X27	Y27	Z27	X28	Y28	Z28	X29	Y29	Z29	X30	Y30	Z30	X31	Y31	Z31	X32	Y32	Z32	X33	Y33	Z33	X34	Y34	Z34	X35	Y35	Z35	X36	Y36	Z36	X37	Y37	Z37	X38	Y38	Z38	X39	Y39	Z39	X40	Y40	Z40	X41	Y41	Z41	X42	Y42	Z42	X43	Y43	Z43	X44	Y44	Z44	X45	Y45	Z45
																																																																																																																																								
257	2.56	866.58618	1602.8656	-1063.45496	835.93536	1605.59473	-933.70697	741.15057	1558.08203	-1088.37256	716.21924	1560.76013	-959.98511	696.65326	1399.24976	-1031.14734	666.89465	1083.85913	-1033.59619	819.19604	1323.4873	-1017.92395	863.66748	1159.27087	-1024.94409	634.32056	1220.23083	-945.41644	788.72003	1362.98608	-1176.28296	820.96545	1177.48438	-1257.31763	866.2536	1065.10632	-1274.72009	953.20837	970.90393	-1264.3241	1030.87317	887.98224	-1222.72998	1012.79462	874.26978	-1273.19373	1077.00342	824.54431	-1258.57324	754.23566	1342.87305	-862.79517	730.08447	1118.22009	-799.3811	732.47888	1004.36035	-789.43262	728.0484	867.04248	-789.72388	744.24139	768.10406	-825.83807	710.76605	767.9848	-782.92932	720.48877	693.672	-794.94476	834.15448	919.8598	-1150.64441	836.93451	924.25916	-910.81903	672.47522	942.70764	-1096.08875	673.99255	949.43146	-947.28754	737.09698	624.98682	-1191.30212	699.19409	448.04623	-1164.54016	562.16431	298.36481	-1165.54944	442.68347	124.82681	-1125.76379	390.90805	114.31959	-1089.54858	558.26379	27.48192	-1092.3092	831.08154	633.46844	-871.70593	894.4964	463.94699	-909.79645	901.26874	276.86469	-908.90649	940.65454	65.20789	-956.3703	904.47253	34.87771	-1014.23969	1083.71045	33.57582	-956.10199	773.86218	1662.03015	-1031.40332	NaN	NaN	NaN	NaN	NaN	NaN	NaN	NaN	NaN	NaN	NaN	NaN	NaN	NaN	NaN
258	2.57	876.82129	1604.46289	-1061.7843	846.32281	1607.1947	-932.0155	751.31714	1559.87854	-1086.55298	726.5683	1562.5481	-958.1745	706.67804	1400.9032	-1029.22791	677.69983	1085.37549	-1032.6145	829.43835	1325.32275	-1016.29572	874.40057	1161.30066	-1023.48279	644.85864	1221.6864	-943.54138	798.59985	1364.94202	-1174.63782	829.58838	1178.83533	-1255.44849	874.05029	1066.03015	-1272.68591	959.79205	970.6499	-1262.4281	1036.39368	886.71338	-1221.03052	1018.11688	873.21906	-1271.49536	1081.74536	822.85846	-1257.00745	764.63556	1344.48279	-861.09625	741.69061	1119.59143	-798.13983	744.29266	1005.70374	-788.46405	739.67957	868.42975	-788.8822	755.31262	769.41589	-825.13574	722.24066	769.34204	-781.90619	731.17523	694.88879	-794.43097	846.04614	921.00665	-1148.78467	848.13837	927.25964	-909.25244	684.185	943.53412	-1095.3595	685.02435	952.07233	-946.51666	751.73761	624.9104	-1190.62317	715.91766	447.56439	-1165.70007	574.49982	301.42328	-1165.89453	450.14496	132.06409	-1124.84973	398.8812	124.45173	-1088.3457	559.09033	27.37778	-1091.93213	840.59753	635.81561	-870.19867	903.505	466.07211	-909.04578	906.14282	277.94476	-908.31635	940.98822	65.38946	-956.57019	904.44672	35.05165	-1014.13501	1084.00964	33.19138	-956.00726	784.33264	1663.80225	-1029.59424	NaN	NaN	NaN	NaN	NaN	NaN	NaN	NaN	NaN	NaN	NaN	NaN	NaN	NaN	NaN
259	2.58	887.07782	1606.10327	-1060.10291	856.74567	1608.79236	-930.27692	761.4339	1561.93152	-1084.77637	736.82172	1564.55249	-956.37018	716.74548	1402.70447	-1027.44885	688.35101	1086.9845	-1031.67395	839.59918	1327.29224	-1014.6792	885.09406	1163.39844	-1021.95917	655.45197	1223.16858	-941.63806	808.43433	1367.15308	-1172.96204	838.28278	1180.45386	-1253.72046	881.59283	1067.15076	-1270.40625	966.02661	970.5376	-1260.4845	1041.48511	885.38702	-1219.32166	1022.88702	872.22186	-1269.89526	1085.82947	820.91669	-1255.53638	775.08392	1346.32092	-859.50763	753.27716	1121.21997	-796.80994	756.26965	1007.36426	-787.54669	751.57825	870.12445	-787.9071	766.88275	771.08228	-824.43982	734.22217	771.04529	-780.62408	742.71069	696.3457	-793.78955	857.72174	922.31665	-1146.6626	859.02301	930.25159	-907.6394	695.86609	944.46588	-1094.55176	695.85999	954.71356	-945.92706	766.77863	625.01184	-1190.52881	733.88245	447.22263	-1167.35193	588.11664	304.32162	-1166.27429	459.19424	139.66252	-1124.41882	408.70502	135.16423	-1086.99524	560.33331	27.43505	-1091.17615	850.40668	638.08087	-868.12988	911.16876	467.85852	-907.69977	909.789	278.64435	-907.10138	940.70837	65.43367	-956.61499	904.50623	35.00851	-1013.9613	1083.95898	32.97069	-955.70996	794.84625	1665.67957	-1027.7312	NaN	NaN	NaN	NaN	NaN	NaN	NaN	NaN	NaN	NaN	NaN	NaN	NaN	NaN	NaN
260	2.59	897.2746	1607.6488	-1058.38306	867.13593	1610.26746	-928.56018	771.46185	1564.05066	-1082.98462	746.99951	1566.54333	-954.55487	726.73718	1404.27087	-1025.62463	698.82458	1088.58948	-1030.72327	849.70245	1329.21716	-1013.09033	895.7417	1165.47791	-1020.43018	666.04932	1224.67639	-939.79572	818.20886	1369.45105	-1171.2384	846.73175	1182.23132	-1251.53418	889.0058	1068.37512	-1268.02209	971.89728	970.44391	-1258.54712	1046.07727	883.90869	-1217.71167	1027.20752	871.18335	-1268.31897	1089.27942	818.73236	-1254.13135	785.37866	1348.28894	-857.96399	764.88263	1123.07202	-795.49011	768.28577	1009.21539	-786.59015	763.90491	871.98639	-786.75555	778.92957	772.90704	-823.59485	746.84851	772.82562	-779.53729	754.77997	698.01978	-793.02002	869.18884	923.86926	-1144.49951	869.63116	933.14911	-905.92609	707.18292	946.02722	-1093.91382	706.6098	957.20673	-945.29797	782.04907	625.03851	-1190.40515	752.65326	446.50229	-1168.99866	603.40686	307.91745	-1166.90369	470.08731	147.29477	-1124.27466	420.45343	146.14864	-1085.78418	561.55353	27.3296	-1090.28333	859.91925	640.14221	-866.11646	917.74341	469.23148	-905.81921	912.34869	278.98282	-905.82721	940.2926	65.78153	-956.1416	904.31073	34.95663	-1013.66052	1083.75708	32.71501	-955.53394	805.36981	1667.56714	-1025.78552	NaN	NaN	NaN	NaN	NaN	NaN	NaN	NaN	NaN	NaN	NaN	NaN	NaN	NaN	NaN
